<?xml version="1.0" standalone="no"?><svg xmlns="http://www.w3.org/2000/svg" viewBox="0 0 1440 320"><path fill="#ADA7EF" fill-opacity="1" d="M0,96L34.3,85.3C68.6,75,137,53,206,69.3C274.3,85,343,139,411,133.3C480,128,549,64,617,74.7C685.7,85,754,171,823,218.7C891.4,267,960,277,1029,256C1097.1,235,1166,181,1234,165.3C1302.9,149,1371,171,1406,181.3L1440,192L1440,320L1405.7,320C1371.4,320,1303,320,1234,320C1165.7,320,1097,320,1029,320C960,320,891,320,823,320C754.3,320,686,320,617,320C548.6,320,480,320,411,320C342.9,320,274,320,206,320C137.1,320,69,320,34,320L0,320Z"></path></svg>